# Blender v2.79 (sub 0) OBJ File: 'animal1.blend'
# www.blender.org
mtllib animal1.mtl
o Cube
v 0.500000 -0.500000 1.000000
v -0.500000 -0.500000 1.000000
v -0.500000 -0.500000 -1.000000
v 0.500000 -0.500000 -1.000000
v 0.500000 0.500000 1.000000
v -0.500000 0.500000 1.000000
v -0.500000 0.500000 -1.000000
v 0.500000 0.500000 -1.000000
v 0.125000 0.147057 1.500000
v -0.125000 0.147057 1.500000
v 0.125000 0.397057 1.500000
v -0.125000 0.397057 1.500000
v 0.375000 -0.102943 2.000000
v -0.375000 -0.102943 2.000000
v 0.374999 0.647057 2.000000
v -0.375001 0.647057 1.999999
v 0.374999 -0.102943 2.500000
v -0.375001 -0.102943 2.500000
v 0.374999 0.647057 2.500000
v -0.375001 0.647057 2.499999
v -0.049999 0.950000 -3.000000
v 0.050001 0.950000 -3.000000
v -0.049999 1.050000 -3.000000
v 0.050001 1.050000 -3.000000
v -0.000000 -0.500000 1.000000
v 0.500000 -0.500000 0.000000
v -0.500000 -0.500000 -0.000000
v 0.000000 -0.500000 -1.000000
v 0.000000 -0.500000 0.000000
v -0.250000 -0.500000 1.000000
v 0.500000 -0.500000 -0.500000
v -0.500000 -0.500000 -0.500000
v 0.250000 -0.500000 -1.000000
v 0.250000 -0.500000 1.000000
v 0.500000 -0.500000 0.500000
v -0.500000 -0.500000 0.500000
v -0.250000 -0.500000 -1.000000
v 0.000000 -0.500000 -0.500000
v -0.000000 -0.500000 0.500000
v 0.250000 -0.500000 0.000000
v -0.250000 -0.500000 0.000000
v -0.250000 -0.500000 0.500000
v 0.250000 -0.500000 0.500000
v 0.250000 -0.500000 -0.500000
v -0.250000 -0.500000 -0.500000
v 0.500000 -1.500000 1.000000
v -0.500000 -1.500000 1.000000
v -0.500000 -1.500000 -1.000000
v 0.500000 -1.500000 -1.000000
v -0.250000 -1.500000 1.000000
v 0.500000 -1.500000 -0.500000
v -0.500000 -1.500000 -0.500000
v 0.250000 -1.500000 -1.000000
v 0.250000 -1.500000 1.000000
v 0.500000 -1.500000 0.500000
v -0.500000 -1.500000 0.500000
v -0.250000 -1.500000 -1.000000
v -0.250000 -1.500000 0.500000
v 0.250000 -1.500000 0.500000
v 0.250000 -1.500000 -0.500000
v -0.250000 -1.500000 -0.500000
vt 0.000000 0.000000
vt 1.000000 0.000000
vt 1.000000 1.000000
vt 0.000000 1.000000
vt 0.000000 0.000000
vt 1.000000 0.000000
vt 1.000000 1.000000
vt 0.000000 1.000000
vt 1.000000 0.000000
vt 1.000000 1.000000
vt 0.000000 1.000000
vt 0.500000 1.000000
vt 0.890916 0.811745
vt 0.987464 0.388739
vt 0.716942 0.049516
vt 0.283058 0.049516
vt 0.012536 0.388740
vt 0.109084 0.811745
vt 0.000000 0.000000
vt 1.000000 0.000000
vt 1.000000 1.000000
vt 0.000000 1.000000
vt 0.500000 1.000000
vt 0.890916 0.811745
vt 0.987464 0.388739
vt 0.716942 0.049516
vt 0.283058 0.049516
vt 0.012536 0.388740
vt 0.109084 0.811745
vt 0.000000 0.000000
vt 1.000000 0.000000
vt 1.000000 1.000000
vt 0.000000 1.000000
vt 0.000000 0.000000
vt 1.000000 0.000000
vt 1.000000 1.000000
vt 0.000000 1.000000
vt 0.000000 0.000000
vt 1.000000 0.000000
vt 1.000000 1.000000
vt 0.000000 1.000000
vt 0.890916 0.811745
vt 0.987464 0.388739
vt 0.716942 0.049516
vt 0.283058 0.049516
vt 0.012536 0.388740
vt 0.109084 0.811745
vt 0.000000 0.000000
vt 1.000000 0.000000
vt 1.000000 1.000000
vt 0.000000 1.000000
vt 0.000000 0.000000
vt 1.000000 0.000000
vt 1.000000 1.000000
vt 0.000000 1.000000
vt 0.000000 0.000000
vt 1.000000 0.000000
vt 1.000000 1.000000
vt 0.000000 1.000000
vt 0.000000 0.000000
vt 1.000000 0.000000
vt 1.000000 1.000000
vt 0.000000 1.000000
vt 0.000000 0.000000
vt 1.000000 0.000000
vt 1.000000 1.000000
vt 0.000000 1.000000
vt 0.000000 0.000000
vt 1.000000 0.000000
vt 1.000000 1.000000
vt 0.000000 1.000000
vt 0.000000 0.000000
vt 1.000000 0.000000
vt 1.000000 1.000000
vt 0.000000 0.000000
vt 1.000000 0.000000
vt 0.000000 1.000000
vt 0.000000 0.000000
vt 1.000000 0.000000
vt 1.000000 1.000000
vt 0.000000 1.000000
vt 0.000000 0.000000
vt 0.000000 1.000000
vt 0.000000 0.000000
vt 1.000000 0.000000
vt 1.000000 1.000000
vt 0.000000 1.000000
vt 0.500000 1.000000
vt 0.890916 0.811745
vt 0.987464 0.388739
vt 0.716942 0.049516
vt 0.283058 0.049516
vt 0.012536 0.388740
vt 0.109084 0.811745
vt 0.000000 0.000000
vt 1.000000 0.000000
vt 1.000000 1.000000
vt 0.000000 1.000000
vt 0.000000 0.000000
vt 1.000000 0.000000
vt 1.000000 1.000000
vt 0.000000 1.000000
vt 0.000000 0.000000
vt 1.000000 0.000000
vt 1.000000 1.000000
vt 0.000000 1.000000
vt 0.000000 0.000000
vt 1.000000 0.000000
vt 1.000000 1.000000
vt 0.000000 1.000000
vt 0.000000 0.000000
vt 1.000000 0.000000
vt 1.000000 1.000000
vt 0.000000 1.000000
vt 0.000000 0.000000
vt 1.000000 1.000000
vt 0.000000 1.000000
vt 1.000000 0.000000
vt 1.000000 1.000000
vt 0.000000 1.000000
vt 0.000000 0.000000
vt 1.000000 0.000000
vt 1.000000 1.000000
vt 0.000000 1.000000
vt 0.000000 0.000000
vt 1.000000 0.000000
vt 1.000000 1.000000
vt 0.000000 1.000000
vt 1.000000 0.000000
vt 1.000000 1.000000
vt 0.000000 1.000000
vt 0.000000 0.000000
vt 1.000000 0.000000
vt 1.000000 1.000000
vt 0.000000 1.000000
vt 0.000000 0.000000
vt 1.000000 0.000000
vt 1.000000 1.000000
vt 0.000000 1.000000
vt 0.000000 0.000000
vt 1.000000 0.000000
vt 1.000000 1.000000
vt 0.000000 1.000000
vt 0.000000 0.000000
vt 1.000000 0.000000
vt 1.000000 1.000000
vt 0.000000 1.000000
vt 0.000000 0.000000
vt 1.000000 0.000000
vt 1.000000 1.000000
vt 0.000000 1.000000
vt 0.000000 0.000000
vt 1.000000 0.000000
vt 1.000000 1.000000
vt 0.000000 1.000000
vt 0.000000 0.000000
vt 1.000000 0.000000
vt 1.000000 1.000000
vt 0.000000 1.000000
vt 0.000000 0.000000
vt 1.000000 0.000000
vt 1.000000 1.000000
vt 0.000000 0.000000
vt 1.000000 0.000000
vt 1.000000 1.000000
vt 0.000000 1.000000
vt 1.000000 0.000000
vt 0.000000 1.000000
vt 1.000000 1.000000
vt 0.000000 0.000000
vt 0.000000 1.000000
vt 1.000000 0.000000
vt 1.000000 1.000000
vt 0.000000 1.000000
vt 0.000000 0.000000
vt 1.000000 0.000000
vt 1.000000 1.000000
vt 0.000000 1.000000
vt 0.000000 0.000000
vt 1.000000 1.000000
vt 0.000000 1.000000
vt 0.000000 0.000000
vt 1.000000 1.000000
vt 0.000000 1.000000
vt 0.000000 0.000000
vt 1.000000 0.000000
vt 1.000000 1.000000
vt 0.000000 0.000000
vt 1.000000 1.000000
vt 0.000000 1.000000
vt 0.000000 0.000000
vt 1.000000 0.000000
vt 0.000000 1.000000
vt 1.000000 0.000000
vt 1.000000 1.000000
vt 0.000000 1.000000
vn 1.0000 0.0000 0.0000
vn 0.0000 1.0000 0.0000
vn -0.0000 0.9795 0.2017
vn -1.0000 -0.0000 -0.0000
vn -0.9756 0.0000 -0.2195
vn 0.0000 0.8944 -0.4472
vn -0.8000 -0.0000 0.6000
vn 0.8000 0.0000 0.6000
vn 0.0000 -0.6114 0.7913
vn 0.8944 0.0000 -0.4472
vn -0.8944 -0.0000 -0.4472
vn 0.0000 -0.8944 -0.4472
vn -0.0000 -0.0000 1.0000
vn 0.0000 -1.0000 0.0000
vn 0.0000 0.0000 -1.0000
vn 0.0000 0.9642 0.2652
vn 0.9756 0.0000 -0.2195
vn 0.0000 -0.8096 -0.5870
usemtl Material
s off
f 35/1/1 1/2/1 46/3/1 55/4/1
f 5/5/2 8/6/2 7/7/2 6/8/2
f 5/5/3 6/9/3 12/10/3 11/11/3
f 2/12/4 6/13/4 7/14/4 3/15/4 32/16/4 27/17/4 36/18/4
f 3/19/5 7/20/5 23/21/5 21/22/5
f 5/23/1 1/24/1 35/25/1 26/26/1 31/27/1 4/28/1 8/29/1
f 11/30/6 12/31/6 16/32/6 15/33/6
f 6/34/7 2/35/7 10/36/7 12/37/7
f 1/38/8 5/39/8 11/40/8 9/41/8
f 2/12/9 30/42/9 25/43/9 34/44/9 1/45/9 9/46/9 10/47/9
f 13/48/1 15/49/1 19/50/1 17/51/1
f 9/52/10 11/53/10 15/54/10 13/55/10
f 12/56/11 10/57/11 14/58/11 16/59/11
f 10/60/12 9/61/12 13/62/12 14/63/12
f 17/64/13 19/65/13 20/66/13 18/67/13
f 16/68/4 14/69/4 18/70/4 20/71/4
f 14/72/14 13/73/14 17/74/14 18/67/14
f 15/75/2 16/76/2 20/66/2 19/77/2
f 21/78/15 23/79/15 24/80/15 22/81/15
f 7/82/16 8/6/16 24/80/16 23/83/16
f 8/84/17 4/85/17 22/86/17 24/87/17
f 4/88/18 33/89/18 28/90/18 37/91/18 3/92/18 21/93/18 22/94/18
f 44/95/14 38/96/14 28/97/14 33/98/14
f 43/99/14 39/100/14 29/101/14 40/102/14
f 42/103/14 36/104/14 27/105/14 41/106/14
f 39/107/14 42/108/14 41/109/14 29/110/14
f 25/111/14 30/112/14 42/113/14 39/114/14
f 33/115/15 4/85/15 49/116/15 53/117/15
f 35/1/14 43/118/14 40/119/14 26/120/14
f 45/121/13 32/122/13 52/123/13 61/124/13
f 34/125/14 25/126/14 39/127/14 43/128/14
f 1/38/13 34/129/13 54/130/13 46/131/13
f 26/132/14 40/133/14 44/134/14 31/135/14
f 40/136/14 29/137/14 38/138/14 44/139/14
f 38/140/14 45/141/14 37/142/14 28/143/14
f 29/144/14 41/145/14 45/146/14 38/147/14
f 41/148/14 27/149/14 32/150/14 45/151/14
f 61/152/14 52/153/14 48/154/14 57/155/14
f 50/156/14 47/157/14 56/158/14 58/159/14
f 46/160/14 54/161/14 59/162/14 55/4/14
f 51/163/14 60/164/14 53/165/14 49/166/14
f 44/95/4 33/167/4 53/165/4 60/168/4
f 42/103/1 30/112/1 50/169/1 58/159/1
f 2/170/4 36/104/4 56/158/4 47/171/4
f 3/19/15 37/172/15 57/173/15 48/174/15
f 31/175/13 44/176/13 60/177/13 51/178/13
f 30/179/13 2/35/13 47/180/13 50/181/13
f 36/182/15 42/108/15 58/183/15 56/184/15
f 4/185/1 31/186/1 51/187/1 49/166/1
f 37/188/1 45/141/1 61/189/1 57/155/1
f 34/125/4 43/118/4 59/162/4 54/190/4
f 32/191/4 3/192/4 48/154/4 52/193/4
f 43/99/15 35/194/15 55/195/15 59/196/15
