# Blender v2.79 (sub 0) OBJ File: 'test1.blend'
# www.blender.org
mtllib test1.mtl
o Plane.001_Plane.003
v -1000.000000 0.000000 1000.000000
v 1000.000000 0.000000 1000.000000
v -1000.000000 0.000000 -1000.000000
v 1000.000000 0.000000 -1000.000000
vt 0.000100 0.000100
vt 0.999900 0.000100
vt 0.999900 0.999900
vt 0.000100 0.999900
vn 0.0000 1.0000 0.0000
usemtl None
s off
f 1/1/1 2/2/1 4/3/1 3/4/1
o Plane_Plane.001
v -1000.000000 -5.000000 1000.000000
v 1000.000000 -5.000000 1000.000000
v -1000.000000 -5.000000 -1000.000000
v 1000.000000 -5.000000 -1000.000000
vt 0.450010 0.450010
vt 0.549990 0.450010
vt 0.549990 0.549990
vt 0.450010 0.549990
vn 0.0000 1.0000 0.0000
usemtl None
s off
f 5/5/2 6/6/2 8/7/2 7/8/2
