# Blender v2.79 (sub 0) OBJ File: 'tree.blend'
# www.blender.org
mtllib tree.mtl
o Cube
v 1.000000 -11.000000 -1.000000
v 1.000000 -11.000000 1.000000
v -1.000000 -11.000000 1.000000
v -1.000000 -11.000000 -1.000000
v 0.900000 2.000000 -0.899999
v 0.899999 2.000000 0.900001
v -0.900000 2.000000 0.900000
v -0.900000 2.000000 -0.900000
v 1.990765 0.663358 -1.990763
v 1.990763 0.663358 1.990765
v -1.990765 0.663358 1.990763
v -1.990764 0.663358 -1.990764
v 0.792000 4.000000 -0.792000
v 0.791999 4.000000 0.792001
v -0.792000 4.000000 0.792000
v -0.792000 4.000000 -0.792000
v 1.624153 2.566734 -1.624152
v 1.624151 2.566734 1.624153
v -1.624153 2.566734 1.624152
v -1.624152 2.566734 -1.624153
v 0.665280 6.000000 -0.665280
v 0.665280 6.000000 0.665281
v -0.665280 6.000000 0.665280
v -0.665280 6.000000 -0.665280
v 1.325258 5.046277 -1.325257
v 1.325257 5.046277 1.325258
v -1.325258 5.046277 1.325257
v -1.325257 5.046277 -1.325258
v 0.558835 8.000000 -0.558835
v 0.558835 8.000000 0.558836
v -0.558836 8.000000 0.558835
v -0.558835 8.000000 -0.558835
v 1.363131 7.015512 -1.363129
v 1.363129 7.015512 1.363131
v -1.363131 7.015512 1.363129
v -1.363130 7.015512 -1.363130
v 0.363243 10.000000 -0.363243
v 0.363243 10.000000 0.363243
v -0.363243 10.000000 0.363243
v -0.363243 10.000000 -0.363243
v 1.066548 9.570395 -1.066548
v 1.066547 9.570395 1.066549
v -1.066549 9.570395 1.066548
v -1.066548 9.570395 -1.066548
v 0.065384 12.000000 -0.065383
v 0.065383 12.000000 0.065384
v -0.065384 12.000000 0.065384
v -0.065384 12.000000 -0.065384
vt 0.000000 0.000000
vt 1.000000 0.000000
vt 1.000000 1.000000
vt 0.000000 1.000000
vt 0.000000 0.000000
vt 1.000000 0.000000
vt 1.000000 1.000000
vt 0.000000 1.000000
vt 1.000000 0.000000
vt 1.000000 1.000000
vt 0.000000 1.000000
vt 0.000000 0.000000
vt 1.000000 1.000000
vt 0.000000 1.000000
vt 0.000000 0.000000
vt 1.000000 0.000000
vt 1.000000 1.000000
vt 0.000000 0.000000
vt 1.000000 0.000000
vt 1.000000 1.000000
vt 0.000000 1.000000
vt 0.000000 0.000000
vt 1.000000 0.000000
vt 1.000000 1.000000
vt 0.000000 1.000000
vt 0.000000 0.000000
vt 1.000000 1.000000
vt 0.000000 1.000000
vt 0.000000 0.000000
vt 1.000000 1.000000
vt 0.000000 1.000000
vt 1.000000 0.000000
vt 1.000000 1.000000
vt 0.000000 1.000000
vt 0.000000 0.000000
vt 1.000000 0.000000
vt 1.000000 1.000000
vt 0.000000 1.000000
vt 0.000000 0.000000
vt 1.000000 0.000000
vt 1.000000 1.000000
vt 0.000000 1.000000
vt 0.000000 0.000000
vt 1.000000 0.000000
vt 1.000000 1.000000
vt 0.000000 1.000000
vt 0.000000 0.000000
vt 1.000000 0.000000
vt 1.000000 1.000000
vt 0.000000 1.000000
vt 0.000000 0.000000
vt 1.000000 0.000000
vt 1.000000 1.000000
vt 0.000000 1.000000
vt 0.000000 0.000000
vt 1.000000 0.000000
vt 1.000000 1.000000
vt 0.000000 1.000000
vt 0.000000 0.000000
vt 1.000000 0.000000
vt 1.000000 1.000000
vt 0.000000 1.000000
vt 0.000000 0.000000
vt 1.000000 0.000000
vt 1.000000 1.000000
vt 0.000000 1.000000
vt 0.000000 0.000000
vt 1.000000 0.000000
vt 1.000000 1.000000
vt 0.000000 1.000000
vt 0.000000 0.000000
vt 1.000000 0.000000
vt 1.000000 1.000000
vt 0.000000 1.000000
vt 0.000000 0.000000
vt 1.000000 0.000000
vt 1.000000 1.000000
vt 0.000000 1.000000
vt 0.000000 0.000000
vt 1.000000 0.000000
vt 1.000000 1.000000
vt 0.000000 1.000000
vt 0.000000 0.000000
vt 1.000000 0.000000
vt 1.000000 1.000000
vt 0.000000 1.000000
vt 0.000000 0.000000
vt 1.000000 0.000000
vt 1.000000 1.000000
vt 0.000000 1.000000
vt 0.000000 0.000000
vt 1.000000 0.000000
vt 1.000000 1.000000
vt 0.000000 1.000000
vt 0.000000 0.000000
vt 1.000000 0.000000
vt 1.000000 1.000000
vt 0.000000 1.000000
vt 0.000000 0.000000
vt 1.000000 0.000000
vt 1.000000 1.000000
vt 0.000000 1.000000
vt 0.000000 0.000000
vt 1.000000 0.000000
vt 1.000000 1.000000
vt 0.000000 1.000000
vt 0.000000 0.000000
vt 1.000000 0.000000
vt 1.000000 1.000000
vt 0.000000 1.000000
vt 0.000000 0.000000
vt 1.000000 0.000000
vt 1.000000 1.000000
vt 0.000000 1.000000
vt 0.000000 0.000000
vt 1.000000 0.000000
vt 1.000000 1.000000
vt 0.000000 1.000000
vt 0.000000 0.000000
vt 1.000000 0.000000
vt 1.000000 1.000000
vt 0.000000 1.000000
vt 0.000000 0.000000
vt 1.000000 0.000000
vt 1.000000 1.000000
vt 0.000000 1.000000
vt 0.000000 0.000000
vt 1.000000 0.000000
vt 1.000000 1.000000
vt 0.000000 1.000000
vt 0.000000 0.000000
vt 1.000000 0.000000
vt 1.000000 1.000000
vt 0.000000 1.000000
vt 0.000000 0.000000
vt 1.000000 0.000000
vt 1.000000 1.000000
vt 0.000000 1.000000
vt 0.000000 0.000000
vt 1.000000 0.000000
vt 1.000000 1.000000
vt 0.000000 1.000000
vt 0.000000 0.000000
vt 1.000000 0.000000
vt 1.000000 1.000000
vt 0.000000 1.000000
vt 0.000000 0.000000
vt 1.000000 0.000000
vt 1.000000 1.000000
vt 0.000000 1.000000
vt 0.000000 0.000000
vt 1.000000 0.000000
vt 1.000000 1.000000
vt 0.000000 1.000000
vt 0.000000 0.000000
vt 1.000000 0.000000
vt 1.000000 1.000000
vt 0.000000 1.000000
vt 0.000000 0.000000
vt 1.000000 0.000000
vt 1.000000 1.000000
vt 0.000000 1.000000
vt 0.000000 0.000000
vt 1.000000 0.000000
vt 1.000000 1.000000
vt 0.000000 1.000000
vt 0.000000 0.000000
vt 1.000000 0.000000
vt 1.000000 1.000000
vt 0.000000 0.000000
vt 1.000000 0.000000
vt 0.000000 1.000000
vt 0.000000 0.000000
vt 1.000000 0.000000
vt 1.000000 1.000000
vt 0.000000 1.000000
vn 0.0000 -1.0000 0.0000
vn 0.0000 -0.6322 -0.7748
vn 1.0000 0.0077 0.0000
vn -0.0000 0.0077 1.0000
vn -1.0000 0.0077 -0.0000
vn 0.0000 0.0077 -1.0000
vn -0.0000 0.3381 0.9411
vn -0.7748 -0.6322 -0.0000
vn 0.7748 -0.6322 0.0000
vn -0.0000 -0.6322 0.7748
vn 0.8648 -0.5021 0.0000
vn 0.9411 0.3381 0.0000
vn -0.9411 0.3381 -0.0000
vn 0.0000 0.3381 -0.9411
vn -0.0000 0.2690 0.9631
vn -0.0000 -0.5021 0.8648
vn 0.0000 -0.5021 -0.8648
vn -0.8648 -0.5021 -0.0000
vn -0.8223 -0.5690 -0.0000
vn 0.9631 0.2690 0.0000
vn -0.9631 0.2690 -0.0000
vn 0.0000 0.2690 -0.9631
vn -0.9679 0.2512 -0.0000
vn 0.8223 -0.5690 0.0000
vn -0.0000 -0.5690 0.8223
vn 0.0000 -0.5690 -0.8223
vn 0.0000 -0.6327 -0.7744
vn 0.0000 0.2512 -0.9679
vn -0.0000 0.2512 0.9679
vn 0.9679 0.2512 0.0000
vn -0.9482 0.3177 -0.0000
vn -0.7744 -0.6327 -0.0000
vn 0.7744 -0.6327 0.0000
vn -0.0000 -0.6327 0.7744
vn -0.0000 -0.8534 0.5213
vn 0.0000 0.3177 -0.9482
vn -0.0000 0.3177 0.9482
vn 0.9482 0.3177 0.0000
vn -0.0000 0.3810 0.9246
vn 0.0000 -0.8534 -0.5213
vn -0.5213 -0.8534 -0.0000
vn 0.5213 -0.8534 -0.0000
vn 0.0000 1.0000 0.0000
vn 0.9246 0.3810 0.0000
vn -0.9246 0.3810 -0.0000
vn 0.0000 0.3810 -0.9246
usemtl Material
s off
f 1/1/1 2/2/1 3/3/1 4/4/1
f 7/5/2 6/6/2 10/7/2 11/8/2
f 1/1/3 5/9/3 6/10/3 2/11/3
f 2/12/4 6/6/4 7/13/4 3/14/4
f 3/15/5 7/16/5 8/17/5 4/4/5
f 5/18/6 1/19/6 4/20/6 8/21/6
f 11/22/7 10/23/7 14/24/7 15/25/7
f 6/26/8 5/9/8 9/27/8 10/28/8
f 8/29/9 7/16/9 11/30/9 12/31/9
f 5/18/10 8/32/10 12/33/10 9/34/10
f 16/35/11 15/36/11 19/37/11 20/38/11
f 10/39/12 9/40/12 13/41/12 14/42/12
f 12/43/13 11/44/13 15/45/13 16/46/13
f 9/47/14 12/48/14 16/49/14 13/50/14
f 19/51/15 18/52/15 22/53/15 23/54/15
f 13/55/16 16/56/16 20/57/16 17/58/16
f 15/59/17 14/60/17 18/61/17 19/62/17
f 14/63/18 13/64/18 17/65/18 18/66/18
f 22/67/19 21/68/19 25/69/19 26/70/19
f 18/71/20 17/72/20 21/73/20 22/74/20
f 20/75/21 19/76/21 23/77/21 24/78/21
f 17/79/22 20/80/22 24/81/22 21/82/22
f 28/83/23 27/84/23 31/85/23 32/86/23
f 24/87/24 23/88/24 27/89/24 28/90/24
f 21/91/25 24/92/25 28/93/25 25/94/25
f 23/95/26 22/96/26 26/97/26 27/98/26
f 31/99/27 30/100/27 34/101/27 35/102/27
f 25/103/28 28/104/28 32/105/28 29/106/28
f 27/107/29 26/108/29 30/109/29 31/110/29
f 26/111/30 25/112/30 29/113/30 30/114/30
f 36/115/31 35/116/31 39/117/31 40/118/31
f 30/119/32 29/120/32 33/121/32 34/122/32
f 32/123/33 31/124/33 35/125/33 36/126/33
f 29/127/34 32/128/34 36/129/34 33/130/34
f 37/131/35 40/132/35 44/133/35 41/134/35
f 33/135/36 36/136/36 40/137/36 37/138/36
f 35/139/37 34/140/37 38/141/37 39/142/37
f 34/143/38 33/144/38 37/145/38 38/146/38
f 43/147/39 42/148/39 46/149/39 47/150/39
f 39/151/40 38/152/40 42/153/40 43/154/40
f 38/155/41 37/156/41 41/157/41 42/158/41
f 40/159/42 39/160/42 43/161/42 44/162/42
f 45/163/43 48/164/43 47/165/43 46/166/43
f 42/167/44 41/168/44 45/169/44 46/166/44
f 44/170/45 43/171/45 47/165/45 48/172/45
f 41/173/46 44/174/46 48/175/46 45/176/46
